<svg width="1381" height="1600" viewBox="0 0 1381 1600" fill="none" xmlns="http://www.w3.org/2000/svg">
<g clip-path="url(#clip0_244_161)">
<path fill-rule="evenodd" clip-rule="evenodd" d="M858.277 1296.17C859.034 1295.8 857.369 1295.65 859.185 1295.9V1393.27C859.185 1424.12 858.852 1456.61 859.185 1487.46C859.185 1489.12 859.185 1489.25 858.852 1490.15L692.513 1585.53V1391.42L858.247 1296.17H858.277ZM515.517 1296.17C517.667 1296.92 553.666 1317.97 557.268 1319.97C571.317 1327.78 584.729 1335.89 598.777 1343.82C612.826 1351.76 626.662 1359.93 640.559 1367.77L682.007 1391.66V1585.74C680.978 1585.74 644.586 1564.55 640.226 1562C626.208 1554.1 612.735 1545.96 598.717 1538.14C578.099 1526.64 556.784 1513.92 536.196 1502.23L515.517 1490.15V1296.02V1296.17ZM643.314 986.038C646.679 987.63 649.936 989.44 653.063 991.458C656.091 993.275 659.391 995.061 662.509 996.908C664.508 998.089 680.887 1007.05 681.129 1008.02C681.129 1008.02 683.158 1301.71 682.764 1305.04C681.011 1304.18 679.304 1303.23 677.648 1302.19C672.289 1299.17 642.648 1282.3 642.406 1281.54V1276.37L643.314 986.038ZM521.209 1287.02L521.754 1286.57L528.112 1282.76C534.561 1278.88 542.191 1275.03 549.033 1270.98C553.514 1268.31 558.54 1265.56 563.142 1263.08C566.745 1261.14 565.958 1260.83 569.742 1258.68L604.318 1238.85C608.89 1236.13 613.401 1233.65 618.064 1230.92L632.051 1223.11L631.87 1276.52C631.87 1290.35 630.507 1286.72 644.525 1295.05L673.863 1311.97C676.376 1313.49 678.647 1314.79 681.251 1316.24C690.333 1321.3 687.064 1320.9 703.958 1310.97L740.29 1289.45C742.954 1287.87 745.194 1287.05 745.194 1283L744.861 1224.44L805.99 1259.41C807.776 1260.41 807.564 1260.9 809.017 1261.8C817.131 1266.74 830.937 1274.19 839.718 1279.06L846.5 1282.94L852.888 1286.57C852.888 1286.57 852.888 1286.78 853.039 1286.57C853.191 1286.36 853.039 1286.57 853.191 1286.72C851.51 1287.84 849.761 1288.85 847.953 1289.75L687.185 1381.88L521.088 1286.6L521.209 1287.02ZM10.7784 1001.03C12.8675 1001.75 69.1515 1034.33 73.4507 1036.84C94.1598 1048.59 115.232 1061.07 135.941 1072.75C137.758 1073.75 176.996 1095.82 177.238 1096.97V1290.75C173.817 1289.02 170.245 1286.75 166.732 1284.69L135.487 1266.77C121.742 1258.56 107.724 1251.09 93.9479 1242.91C92.979 1242.34 13.4731 1196.34 10.839 1195.34V1000.97L10.7784 1001.03ZM1245.48 1065.97C1259.38 1058.1 1273.09 1050.1 1287.02 1042.11C1307.19 1030.52 1329.41 1018.19 1349.33 1006.35C1352.84 1004.3 1356.26 1002.33 1359.81 1000.3L1370.31 994.243V1188.56L1203.97 1284.27V1089.89L1245.57 1066.09L1245.48 1065.97ZM1127.8 1138.64V1185.38C1125.01 1186.78 1122.14 1188.41 1119.5 1190.05L1111.51 1194.68C1073.82 1215.87 1036.3 1238.01 998.548 1259.41L901.663 1314.97L885.647 1324.05L869.631 1333.14V1289.78L1127.86 1138.73L1127.8 1138.64ZM246.753 1138.64C248.933 1139.54 252.415 1141.94 254.837 1143.3L279.058 1157.53C284.326 1160.74 289.897 1163.89 295.196 1166.94C311.06 1176.03 327.864 1186.41 343.638 1195.28C356.808 1202.7 370.887 1211.18 384.087 1218.93C396.955 1226.47 411.881 1234.92 424.294 1242.49C429.653 1245.76 434.982 1248.88 440.401 1251.93C456.327 1261.02 472.797 1271.04 488.844 1280.27C494.172 1283.3 499.834 1286.33 504.92 1289.72V1333.11C502.046 1331.76 499.265 1330.22 496.594 1328.5L488.753 1324.05C483.182 1321.03 478.035 1318 472.706 1314.97L391.868 1268.62C386.63 1265.59 381.332 1262.56 375.822 1259.53L343.517 1241C339.46 1238.61 249.448 1186.81 246.632 1185.66V1138.88L246.753 1138.64ZM822.581 1257.02C825.805 1255.38 828.938 1253.57 831.967 1251.6L859.912 1235.22C897.303 1213.84 934.695 1191.08 971.935 1169.61C1006.18 1149.93 1040.51 1129.37 1074.87 1109.39C1080.93 1105.85 1079.69 1105.39 1084.44 1108.21C1087.47 1110.02 1120.77 1128.25 1122.17 1129.61L1065.94 1162.62C1059.89 1166.13 1053.44 1169.76 1047.35 1173.48C1041.27 1177.21 1034.73 1180.72 1028.58 1184.48C1022.44 1188.23 1016.23 1191.8 1010.02 1195.38C972.54 1216.9 935.179 1239.49 897.697 1261.11L869.51 1277.58C863.454 1281.12 864.998 1281.39 860.427 1278.61C857.399 1276.7 854.069 1275.06 850.89 1273.25L822.581 1257.02ZM252.324 1129.58C255.341 1127.57 258.475 1125.74 261.71 1124.1L290.26 1108.03C294.984 1105.42 292.773 1105.48 299.646 1109.39L346.423 1136.64C352.69 1140.39 358.534 1143.84 364.983 1147.54L374.368 1153.05L379.061 1155.8C380.06 1156.35 380.515 1156.62 381.514 1157.26C382.513 1157.89 382.725 1157.95 383.784 1158.53C390.082 1162.07 396.077 1165.79 402.374 1169.4C427.382 1183.81 452.27 1198.83 477.308 1213.27C498.835 1225.71 521.27 1239.46 542.827 1251.63C545.642 1253.23 549.366 1255.26 551.91 1257.02C551.122 1257.93 535.379 1266.53 532.987 1267.83C526.538 1271.34 520.271 1274.94 513.943 1278.55C509.401 1281.12 511.248 1281.15 504.527 1277.28L476.642 1260.99C470.587 1257.23 464.047 1253.57 457.871 1249.97C426.716 1232.04 395.32 1212.88 364.347 1195.25C345.818 1184.69 326.683 1173.15 308.214 1162.37L252.354 1129.58H252.324ZM1026.95 994.395C1040.69 1002.3 1054.62 1010.41 1068.58 1018.25C1082.53 1026.1 1096.28 1034.42 1110.3 1042.23C1124.32 1050.04 1138.24 1058.58 1152.05 1066.18C1164.16 1072.9 1176.27 1080.26 1188.38 1087.07C1189.41 1087.65 1193.04 1089.22 1193.26 1090.4V1284.18C1191.53 1283.63 1167.91 1269.8 1166.01 1268.62C1156.92 1263.35 1148.17 1258.26 1139.09 1253.14C1130.01 1248.03 1121.17 1242.76 1112.15 1237.67L1091.77 1226.02C1089.74 1224.8 1087.08 1223.47 1085.26 1222.23C1086.74 1220.6 1133.88 1194.71 1136.49 1192.62C1139.09 1190.53 1138.39 1187.41 1138.39 1184.05V1133.79C1138.39 1124.71 1138.24 1126.55 1130.22 1121.68C1122.2 1116.81 1112.78 1112.17 1104.33 1107.12L1084.96 1096.55C1082.29 1095.1 1080.81 1093.95 1077.66 1095.73C1060.89 1105.21 1043.48 1116.17 1026.83 1125.37V994.546L1026.95 994.395ZM187.744 1096.88C188.38 1095.7 191.559 1094.25 192.891 1093.49L229.223 1072.6C242.999 1064.46 256.926 1056.86 270.762 1048.74L312.514 1024.79C319.477 1020.92 326.471 1016.74 333.283 1012.86L348.936 1003.78C350.605 1002.64 352.355 1001.63 354.174 1000.75V1128.83C352.785 1128.15 351.44 1127.4 350.147 1126.56L346.484 1124.41L309.335 1102.64C290.503 1091.25 296.104 1092.83 278.604 1102.3C273.669 1104.97 268.613 1107.78 263.678 1110.69C258.743 1113.6 253.535 1116.17 248.539 1119.17C246.087 1120.65 243.574 1121.95 241.061 1123.38C238.548 1124.8 236.156 1125.68 236.156 1129.98V1187.38C236.156 1192.07 238.639 1192.74 241.788 1194.59L298.344 1227.08C292.683 1230.86 277.787 1238.82 270.672 1243.06C261.589 1248.42 252.173 1253.69 243.09 1258.87L187.684 1290.54V1096.76L187.744 1096.88ZM364.771 1050.71C366.042 1049.53 395.713 1032.85 398.075 1031.42C409.398 1024.82 420.479 1018.77 431.621 1012.17C442.763 1005.57 453.935 999.603 465.137 992.942C481.244 983.344 499.017 973.655 515.548 964.057L549.306 944.831C552.182 943.136 554.907 941.803 557.753 940.017C561.235 937.958 559.993 937.716 565.988 941.258C571.983 944.801 632.596 979.135 632.929 980.043L632.233 1210.67L615.46 1220.41C598.899 1230.13 581.49 1239.55 565.08 1249.33C561.84 1251.27 563.354 1251.48 556.754 1247.63C553.726 1245.91 551.213 1244.42 548.397 1242.73C542.827 1239.34 537.225 1236.31 531.624 1232.92C515.669 1223.23 498.017 1213.3 481.638 1203.64L364.892 1135.21V1050.71H364.771ZM743.408 979.044C746.111 977.06 748.978 975.307 751.976 973.806L777.651 959.031C791.608 950.886 806.716 942.712 820.462 934.507C822.672 933.174 822.49 932.872 824.761 934.173C865.967 957.941 907.325 981.255 948.592 1005.2C954.375 1008.53 960.066 1011.62 965.698 1014.95C971.329 1018.28 977.021 1021.58 982.744 1024.76L1008.45 1039.51C1010.66 1040.78 1016.32 1043.32 1016.32 1044.78V1130.85C1016.32 1131.88 1009.42 1135.52 1008.24 1136.21L982.713 1151.05C972.116 1157.26 959.067 1164.64 948.834 1170.91L812.711 1250.57C811.5 1251.05 805.747 1247.21 804.173 1246.27C790.912 1238.37 775.108 1229.59 761.574 1221.87C759.848 1220.87 744.892 1212.42 744.68 1211.91L743.287 979.044H743.408ZM693.482 1304.92C692.877 1298.56 693.301 1269.16 693.149 1259.68C692.423 1214.93 693.149 1169.79 692.332 1124.71C691.756 1086.86 692.089 1049.35 691.666 1011.74C691.666 1008.72 691.03 1008.72 693.331 1007.44C694.693 1006.72 695.571 1006.17 696.873 1005.45L704.049 1001.33C709.105 998.482 713.495 995.939 718.43 993.063L732.932 984.827L734.689 1280.39C733.114 1281.88 694.754 1304.22 693.482 1304.92ZM44.0523 975.714C53.1352 970.294 62.642 964.965 71.8158 959.788L113.567 935.808C118.29 933.114 122.65 930.51 127.222 928.027C127.585 931.418 127.222 977.591 127.222 985.221C127.222 994.153 128.13 993.365 134.488 996.968C142.663 1001.57 150.656 1006.32 158.709 1010.93L176.875 1021.37C183.899 1025.37 183.263 1025.64 190.106 1021.52L231.797 996.847C238.851 992.699 240.728 992.82 240.698 986.493C240.668 980.165 240.698 973.776 240.698 967.418C240.698 955.125 240.002 941.652 240.698 929.541C243.104 930.651 245.431 931.926 247.661 933.356L254.474 937.232C258.955 939.805 263.557 942.439 268.038 945.043L301.977 964.511C303.03 965.252 304.041 966.051 305.005 966.903C309.456 969.689 316.904 973.473 321.96 976.471L349.209 991.609C347.695 993.032 310.364 1014.11 307.609 1015.68C293.651 1023.61 280.057 1031.76 266.1 1039.54C252.142 1047.32 238.851 1055.49 224.561 1063.4L192.8 1081.41C189.444 1083.57 185.955 1085.51 182.355 1087.22L140.786 1063.25C127.01 1055.49 113.022 1047.35 99.2462 1039.39L16.7732 992.124C16.1979 991.64 16.7732 992.124 16.1979 991.549L44.0523 975.714ZM1154.65 692.47C1157.92 694.075 1161.19 696.164 1164.25 697.92L1192.44 714.3L1194.19 1013.32L1183.9 1007.47C1180.3 1005.45 1177.21 1003.57 1173.64 1001.42L1155.77 991.125C1153.05 989.641 1153.71 990.974 1153.75 981.86L1154.65 692.349V692.47ZM138.545 689.231C139.665 689.231 154.955 698.496 157.528 699.949C159.436 701.039 176.118 710.455 176.36 711.061L177.995 1009.96L142.299 989.369L139.817 987.946C137.758 986.795 138.121 987.28 137.637 986.19L138.545 689.231ZM1074.39 961.544C1075.59 960.966 1076.71 960.255 1077.75 959.425C1080.96 957.176 1084.32 955.152 1087.8 953.369C1103.91 943.892 1120.62 934.84 1136.52 925.393C1138.72 923.983 1141 922.709 1143.36 921.578V922.82C1143.57 942.106 1143.21 962.907 1143.18 982.375C1143.18 998.089 1142.09 995.455 1151.14 1000.81L1191.38 1023.88C1195.19 1026.13 1198.55 1029.03 1202.34 1026.91C1209.03 1023.22 1215.63 1018.95 1222.26 1015.1C1228.89 1011.26 1235.46 1007.32 1242.18 1003.33C1257.9 993.91 1256.59 996.666 1256.5 985.736C1256.5 975.29 1256.23 964.723 1256.14 954.338C1256.05 943.953 1255.47 932.811 1255.81 922.608C1257.44 923.092 1267.58 929.148 1269.86 930.449L1297.1 946.042C1301.43 948.464 1363.71 983.98 1364.83 985.1L1281.69 1033C1261.5 1044.56 1239.61 1057.58 1219.41 1068.79C1216.9 1070.15 1199.55 1080.5 1198.58 1080.41C1198.37 1080.41 1033.27 985.917 1032.55 985.13L1074.51 961.423L1074.39 961.544ZM364.771 1038.18V1016.98C364.771 1010.32 364.377 1002.45 364.771 995.939C364.771 994.092 367.798 993.184 370.826 991.367L510.098 909.861C511.369 909.376 515.396 912.283 516.849 913.101L523.419 916.885C526.144 918.49 548.276 930.904 550.063 932.296C545.703 935.324 532.684 942.227 527.022 945.558C519.423 950.069 511.49 954.641 503.77 958.88C495.474 963.573 366.164 1038.12 364.922 1038.24L364.771 1038.18ZM1016.08 988.128C1016.93 989.096 1016.47 991.852 1016.47 993.305V1031.82C1014.93 1031.97 1016.17 1031.82 1015.68 1031.55L970.149 1005.39C947.895 992.336 923.826 979.256 901.845 966.237C881.348 954.126 859.67 942.348 839.112 930.237C837.182 929.306 835.347 928.191 833.632 926.907L853.009 915.856C856.309 913.948 859.367 912.223 862.637 910.285C866.391 908.105 869.328 907.711 869.631 902.382C881.923 909.164 894.034 916.794 906.356 923.849C924.825 934.355 942.96 945.346 961.308 955.973C967.363 959.516 973.691 963.058 979.655 966.752L1016.14 988.128H1016.08ZM858.64 706.247L859.185 705.914C859.579 713.755 859.185 722.536 859.185 730.468V888.758C859.185 890.302 859.7 899.779 858.701 900.354L775.713 948.192C754.822 960.303 734.083 971.869 713.434 983.98L692.513 995.818V801.408L858.55 706.247H858.64ZM515.548 705.974L536.408 717.843C543.19 721.718 550.426 725.745 557.208 729.772C570.923 737.856 585.092 745.486 598.747 753.6C612.402 761.714 626.632 769.375 640.498 777.58L682.007 801.438V995.636C668.474 987.734 654.153 980.013 640.498 971.899C633.747 967.872 626.692 963.845 619.729 959.97C591.996 944.468 564.141 927.846 536.438 912.162L515.608 900.202V705.974H515.548ZM317.873 962.21L318.084 962.029L364.771 934.537C372.522 929.844 380.333 925.454 388.265 920.791L458.264 879.796C469.558 873.165 482.486 865.929 493.415 859.268C495.323 858.117 497.321 856.906 499.471 855.786C501.62 854.666 503.104 853.545 505.132 852.758V900.566L481.789 914.281C474.069 919.005 466.227 923.183 458.507 927.906C436.223 941.561 411.003 955.156 388.689 968.78C381.059 973.473 373.127 977.863 365.437 982.405C358.625 986.493 360.381 986.432 353.478 982.405L323.807 965.753C321.757 964.707 319.776 963.534 317.873 962.241V962.21ZM869.6 842.222C885.132 850.79 902.36 861.569 918.043 870.591C942.052 884.367 966.879 899.597 990.706 913.131C1010.81 924.545 1030.94 936.898 1051.26 948.525L1063.37 955.61C1061.01 957.366 1031.22 973.776 1026.77 976.35C1023.16 978.408 1022.28 979.377 1020.44 978.469L990.161 960.757C958.038 942.288 925.37 922.88 893.277 904.108C889.189 901.686 885.284 899.476 881.166 897.054C877.061 894.907 873.115 892.468 869.358 889.757L869.6 842.222ZM869.6 755.508C892.429 742.246 915.621 729.499 938.358 716.147C961.096 702.795 984.227 690.169 1007.06 676.787C1018.29 670.186 1030.16 663.586 1041.45 657.107C1047.2 653.837 1052.86 650.506 1058.71 647.206C1069.43 641.15 1067.61 640.787 1071.76 643.24C1090.07 654.018 1108.88 664.434 1127.25 675.122L1142.39 683.72C1143.42 684.326 1143.75 684.205 1144.21 685.234L1143.45 908.831C1143.21 909.649 1128.13 917.915 1126.34 919.005L1083.2 943.802C1080.48 945.376 1077.45 947.284 1074.54 948.797C1072.94 949.645 1071.82 948.313 1070.18 947.374L1006.06 909.861C994.46 903.2 983.41 896.478 971.753 889.787C949.167 876.798 925.975 862.84 903.389 849.73C901.663 848.731 869.812 830.746 869.54 829.505V755.477L869.6 755.508ZM186.866 711.394C186.866 710.334 188.32 709.94 189.167 709.456C195.495 705.641 227.164 686.718 228.163 686.597L229.95 983.949C229.95 986.19 229.768 985.736 227.74 986.977C222.138 990.186 190.166 1009.56 188.653 1009.87L186.866 711.454V711.394ZM1202.94 714.421C1206.18 712.756 1240.76 693.409 1242.58 692.925L1246 987.976C1246 989.096 1246 989.157 1244.88 989.823L1243.64 990.519C1237.16 994.365 1205.73 1013.26 1204.73 1013.35L1202.94 714.421ZM238.639 684.356C239.184 683.236 241.667 682.206 242.696 681.571L305.217 645.42C310.122 642.664 308.88 642.967 313.816 645.874L322.051 650.567L438.676 717.449C454.843 726.775 472.797 736.645 488.692 746.122C491.518 747.777 494.334 749.382 497.139 750.936C498.562 751.753 504.557 754.811 504.981 755.962V839.466C504.981 840.859 501.318 842.312 499.198 843.614C468.922 861.781 436.889 879.796 406.492 897.871C389.991 907.681 373.43 917.037 357.081 926.786C348.876 931.66 340.61 936.565 332.405 941.258L313.785 952.128C311.832 953.426 309.811 954.619 307.73 955.701C307.034 955.701 260.014 928.451 257.017 926.756C251.446 923.516 245.724 920.095 240.153 917.037L238.73 684.084L238.639 684.356ZM521.149 696.891C522.36 695.71 540.556 685.567 541.858 684.78C548.7 680.783 555.755 676.666 562.627 672.851C570.136 668.703 686.186 601.457 687.276 601.487C688.366 601.518 795.665 663.586 811.954 672.881L843.199 690.835C846.717 692.65 850.124 694.672 853.403 696.891C852.222 698.041 687.306 792.234 687.276 792.234C686.428 792.234 611.796 748.968 604.197 744.729C590.149 736.887 576.736 728.773 562.658 720.87L531.412 702.946L526.265 699.919C524.478 699.055 522.766 698.042 521.149 696.891ZM1203.85 507.204C1203.85 506.084 1205.15 505.751 1206.09 505.206C1226.01 494.033 1246.39 481.68 1266.13 470.75C1286.75 459.336 1307.97 446.529 1328.65 434.872L1370.28 411.074V604.848C1370.04 605.605 1332.62 626.92 1328.74 629.07C1301.34 644.209 1272.85 661.376 1245.45 676.878L1209.12 697.769C1207.42 698.816 1205.68 699.776 1203.88 700.645V507.113L1203.85 507.204ZM10.9601 411.074L177.481 506.417V699.162C174.15 697.678 170.305 695.044 166.975 693.106C162.615 690.654 138.757 676.484 135.972 675.212C134.397 674.486 133.731 674.94 132.278 674.667L124.376 670.307C112.265 663.344 11.8684 606.15 11.0812 604.878L10.9601 411.074ZM1127.95 548.865V595.492L869.812 743.427V742.216V699.919L1128.04 548.926L1127.95 548.865ZM246.905 548.865C249.785 550.27 252.567 551.868 255.231 553.649L279.452 567.728C290.17 574.177 300.948 580.202 311.696 586.591C322.444 592.979 333.162 599.338 343.941 605.514L380.272 626.708C395.017 635.186 409.883 644.299 424.567 652.626C440.492 661.709 457.023 671.852 473.009 680.965C478.459 683.993 483.757 687.202 489.146 690.412L505.254 699.888V701.069C505.254 711.787 505.617 733.647 505.254 743.457L489.086 734.374C473.13 725.018 456.811 716.208 440.644 706.67C419.147 694.045 397.53 682.206 376.064 669.641C343.819 650.748 311.303 632.885 279.179 614.083C273.669 610.873 268.643 608.027 263.163 604.999L247.026 595.916L246.905 548.865ZM643.526 395.996C645.494 396.753 677.738 415.585 681.281 417.523L682.31 591.738C681.705 593.01 678.707 594.221 677.405 594.978C669.443 599.55 649.369 611.479 642.799 614.779L643.526 395.996ZM832.36 661.557L841.746 656.047L879.138 634.187C885.374 630.584 891.521 627.102 897.697 623.317C903.873 619.533 910.262 616.081 916.499 612.327C922.736 608.572 928.882 605 935.058 601.427L1009.51 557.616C1021.86 550.258 1034.4 542.992 1046.87 535.755C1053.2 532.122 1059.46 528.549 1065.67 524.765L1079.75 516.469C1081.11 515.924 1083.17 517.589 1084.5 518.346L1112.9 534.302C1115.93 535.907 1119.47 537.784 1122.17 539.51C1121.29 540.448 1086.59 560.552 1084.71 561.642C1072.03 568.909 1060.04 576.206 1047.35 583.503L1009.99 605.363C991.826 616.444 972.147 627.193 953.829 638.214C935.966 648.992 915.984 660.467 897.909 670.974L869.721 687.475C863.212 691.169 865.059 691.38 860.457 688.686C854.553 685.234 827.335 670.096 822.854 667.038L832.088 661.497L832.36 661.557ZM280.784 523.342C283.812 521.586 287.081 519.92 290.139 518.134C291.835 517.105 293.167 515.651 295.135 516.711C330.861 537.269 367.011 559.251 402.495 579.597C427.443 593.948 452.421 609.087 477.218 623.347C483.515 626.92 489.722 630.735 496.019 634.338L533.168 656.077C537.619 658.711 548.307 664.585 551.546 666.916C548.189 669.109 544.723 671.13 541.161 672.972C537.77 674.879 534.379 676.787 530.867 678.876L510.249 690.593C504.83 687.566 499.531 684.296 494.112 681.207L445.669 652.868C434.8 646.6 424.203 640.212 413.395 634.005C408.036 630.977 402.677 627.738 397.288 624.528L348.845 596.219C338.006 589.921 327.41 583.472 316.571 577.356L284.296 558.463C283.145 557.767 253.02 540.479 252.112 539.358L280.663 523.312L280.784 523.342ZM1026.83 410.953L1058.37 428.968C1075.57 438.535 1092.98 449.041 1110.18 458.73C1113.02 460.335 1193.04 505.842 1193.32 506.81V700.585C1190.78 699.4 1188.34 698.045 1185.99 696.528C1183.54 695.074 1181.24 693.833 1178.81 692.41C1174.18 689.624 1169.4 686.93 1164.61 684.265C1145.57 673.577 1126.77 662.193 1107.88 651.687C1103.06 648.992 1098.43 646.358 1093.68 643.512C1092.19 642.634 1080.6 636.215 1079.6 635.246C1080.84 634.096 1127.74 607.543 1133.22 604.364C1136.25 602.577 1138.33 601.972 1138.33 597.37V540.479C1138.33 534.726 1133.94 533.999 1126.59 529.761C1121.92 527.096 1117.29 524.432 1112.51 521.828C1102.88 516.62 1093.8 511.08 1084.11 505.872C1080.02 503.692 1079.11 504.782 1075.69 506.75L1033.73 531.244C1031.52 532.486 1029.04 534.272 1026.77 535.211V411.074L1026.83 410.953ZM187.744 506.81C188.622 505.569 205.91 496.062 208.575 494.488L354.235 410.983C354.235 422.579 354.447 536.361 354.235 539.056C349.542 536.028 344.334 533.212 339.49 530.427L309.668 512.987C291.714 502.572 297.315 501.906 278.604 512.624L248.57 529.518C245.905 530.941 243.665 532.304 241.091 533.697C238.518 535.089 236.338 536.331 236.338 540.479V597.43C236.338 602.093 238.73 602.91 241.909 604.697C248.358 608.269 297.527 636.276 298.374 637.245L243.514 668.854C231.403 675.909 238.306 670.641 232.13 672.033C230.737 672.336 216.991 680.783 215.084 681.873C212.753 683.266 189.833 697.012 187.835 697.86V506.81H187.744ZM731.297 395.814L733.841 615.597C730.162 613.907 726.611 611.954 723.214 609.753C720.58 608.239 693.724 593.07 692.695 592.041L691.756 418.34L731.297 395.784V395.814ZM381.544 450.919C409.398 435.296 437.253 418.704 465.258 402.929C476.461 396.632 487.784 390.152 498.835 383.703C509.886 377.254 521.209 371.108 532.351 364.477L557.662 349.974C559.539 348.915 559.933 347.855 562.113 349.096L566.23 351.458C577.584 357.847 588.423 364.447 599.716 370.714L628.933 387.488C630.689 388.548 632.808 389.244 632.808 390.273L632.112 620.623C629.443 622.431 626.662 624.07 623.786 625.527C604.227 636.7 584.638 648.266 564.989 659.287C562.779 660.558 562.87 661.315 560.659 660.013L531.473 642.876C498.381 623.65 464.471 603.274 431.409 584.35L364.801 545.202V460.729L381.574 450.979L381.544 450.919ZM1032.49 401.9C1033.73 400.719 1071.64 379.737 1074.39 378.163C1076.08 377.17 1077.67 376.025 1079.14 374.741L1094.55 365.87C1115.29 354.334 1136.25 341.648 1156.86 330.113C1158.95 328.932 1197.46 306.406 1198.55 306.466C1199.64 306.527 1278.97 352.397 1282 354.062L1359.96 398.781C1361.77 399.651 1363.47 400.739 1365.01 402.021C1363.12 402.888 1361.3 403.9 1359.56 405.049C1344.43 413.466 1199.49 497.303 1198.61 497.213L1136.37 461.576C1105.18 444.167 1073.94 425.244 1042.78 407.864C1039.6 406.078 1035.36 403.838 1032.55 401.809L1032.49 401.9ZM16.319 402.051C16.7732 401.415 16.319 401.839 17.0457 401.294L26.7039 395.723C50.6525 381.977 75.6609 367.263 99.3674 353.91C113.385 346.069 127.191 338.015 140.937 330.082C147.991 326.025 154.592 322.271 161.676 318.153C165.249 316.094 168.7 314.217 172.182 312.098C173.938 311.038 175.513 310.16 177.299 309.07C178.937 307.932 180.719 307.016 182.597 306.345C183.596 306.345 257.865 349.551 265.797 353.971L297.073 371.895C298.768 372.925 300.494 373.742 302.159 374.923C303.824 376.104 303.461 376.104 304.49 376.83L327.894 390.001C330.71 391.636 347.634 400.719 348.633 401.87C335.16 409.984 320.658 417.705 306.943 425.819L182.416 497.061C181.84 497.061 144.843 475.625 140.937 473.384L109.692 455.43C92.7065 445.408 74.9343 435.659 57.8583 425.698L26.613 407.743C23.2705 405.636 19.8024 403.736 16.2282 402.051H16.319ZM741.834 389.668C744.468 388.426 747.889 386.247 750.463 384.733C753.036 383.219 756.155 381.402 759.091 379.767C775.955 370.412 793.667 359.572 810.561 350.247C816.889 346.735 816.617 345.826 819.463 347.613C822.309 349.399 825.245 350.974 828.091 352.578C856.612 368.595 885.253 385.429 913.653 401.627L1016.59 460.668V541.326L880.954 620.895C869.661 627.495 858.247 634.217 846.832 640.817L821.309 655.774C810.682 661.83 815.103 662.284 804.294 656.138L744.68 621.834L742.015 389.668H741.834ZM758.213 253.814C759.848 254.298 788.49 271.344 790.821 272.677C817.525 288.269 1014.87 403.505 1016.47 404.958V448.133C1015.02 447.982 945.837 407.804 935.573 402.051C919.345 392.968 903.449 383.431 887.13 374.348C865.574 362.237 844.229 349.49 822.551 337.319L766.176 304.982C763.427 303.573 760.768 301.996 758.213 300.259V253.814ZM364.922 405.2C370.079 401.677 375.415 398.423 380.908 395.451C404.827 381.554 620.788 254.601 623.12 253.814V299.956C622.484 301.319 620.516 301.894 619.214 302.651L558.661 337.319C537.044 349.429 515.638 362.358 494.051 374.348C483.273 380.403 472.555 386.822 461.746 392.847L429.441 411.377C427.988 412.224 367.011 447.467 364.831 448.224V405.17L364.922 405.2ZM804.143 221.538C805.233 220.903 805.323 221.024 806.353 221.538C829.696 234.86 852.979 249.182 876.382 262.564C889.098 269.861 900.967 277.158 913.774 284.424C932.454 295.052 951.347 306.708 970.088 317.426C994.703 331.475 1020.35 346.704 1044.81 361.177C1047.14 362.539 1062.43 371.229 1063.25 372.137C1060.22 374.045 1057.04 375.68 1053.95 377.436L1025.34 393.513C1023.65 394.452 1022.31 395.935 1020.65 395.088L988.012 375.952C975.538 368.686 963.124 361.359 950.62 354.122L875.716 310.251C869.479 306.648 863.061 302.984 856.945 299.23C850.829 295.475 844.441 292.084 838.355 288.36C832.27 284.636 825.76 280.942 819.584 277.37L763.663 244.61L804.143 221.599V221.538ZM317.812 372.228C318.962 371.138 352.963 351.458 355.234 350.156C392.534 328.568 429.986 306.042 467.257 284.545C492.265 270.133 517.364 254.813 542.191 240.704L570.378 224.203C576.221 220.782 574.95 220.358 579.461 223.143C583.548 225.596 615.944 243.217 617.216 244.61C615.736 245.66 614.189 246.61 612.584 247.456L598.505 255.691C592.056 259.385 586.061 263.018 579.703 266.682C554.725 281.033 529.868 296.202 504.981 310.432C480.094 324.663 455.146 339.832 430.077 354.274C417.512 361.51 405.281 368.898 392.686 376.134C386.449 379.737 380.091 383.4 373.914 387.155C370.887 389.093 367.647 390.728 364.529 392.635C363.56 393.241 360.744 395.057 359.836 395.421C358.927 395.784 356.505 394.179 355.355 393.513L326.744 377.436C323.716 375.74 320.264 374.075 317.661 372.228H317.812ZM859.004 116.022V240.159C856.945 239.493 820.038 217.572 816.617 215.574C803.901 207.944 806.444 208.005 794.454 214.968L759.031 234.891C756.639 236.223 754.398 237.555 751.976 238.857C748.949 240.431 747.465 241.098 747.465 245.306V302.833C747.465 307.102 750.13 307.98 752.945 309.585L775.774 322.695C779.558 324.935 805.233 339.196 806.323 340.377L692.483 405.624V211.396L859.004 116.022ZM515.517 116.022C516.759 116.295 554.877 138.488 557.359 139.881C571.196 147.692 584.941 155.897 598.929 163.709C612.917 171.52 626.359 179.756 640.438 187.567C647.492 191.473 654.335 195.379 661.208 199.466C668.08 203.554 675.589 207.429 682.007 211.426V405.624L654.365 389.88C636.381 379.555 617.034 368.141 599.02 358.149L578.28 346.22C576.062 344.812 573.768 343.529 571.408 342.375C571.68 342.012 571.408 342.193 571.922 341.86L587.545 332.777L603.773 323.452L627.994 309.554C631.022 307.798 633.505 307.102 633.505 302.469V245.276C633.505 240.704 631.446 240.159 628.358 238.494C616.035 231.863 603.016 224.021 590.663 217.3C586.97 215.301 578.008 209.397 575.041 209.791C573.254 210.033 548.791 224.718 545.158 226.837C543.129 227.988 516.91 243.611 515.487 244.034V116.053L515.517 116.022ZM687.306 11.4145C688.123 11.4145 818.615 86.6837 843.381 100.823C846.88 102.637 850.267 104.659 853.524 106.879C846.681 111.087 839.748 114.72 832.754 118.838C825.76 122.956 818.918 126.952 811.984 130.767C789.792 142.878 689.153 202.07 687.276 202.131C686.458 202.131 569.197 134.613 562.415 130.677C560.084 129.344 522.118 107.817 521.028 106.788L687.306 11.4751V11.4145ZM504.951 250.302C501.348 252.845 496.837 255.146 492.84 257.356C480.942 264.078 469.013 271.496 457.114 278.278C449.151 282.82 441.158 287.543 433.196 292.266C401.405 311.159 369.464 329.386 337.673 348.188C329.892 352.79 321.869 357.604 313.967 362.055C306.912 366.052 309.304 366.96 301.856 362.751L289.958 355.909C281.934 351.307 274.032 346.826 265.888 342.072C242.06 328.205 217.718 314.823 193.921 300.774C191.105 299.078 184.172 294.295 181.114 295.021C179.116 295.506 148.203 313.642 144.964 315.519L73.2085 356.878C57.1923 366.203 41.1155 375.286 25.0992 384.491C21.1027 386.792 17.0154 389.183 12.9886 391.454C-2.84596 400.356 0.302786 396.783 0.302786 416.493V605.514C0.302786 608.693 0.121137 610.934 2.51298 612.569C4.14791 613.719 6.53975 614.961 8.56827 616.02C46.5955 637.578 84.2594 659.801 122.499 681.419C123.619 682.055 127.979 684.053 128.221 685.143L127.403 915.856C119.289 920.337 111.448 925.151 103.334 929.662C95.2195 934.174 87.3779 938.745 79.4757 943.347C55.4665 957.275 31.2151 970.748 7.35721 984.676C1.0597 988.339 0.272526 987.371 0.272526 996.211V1184.35C0.272526 1188.53 -0.635786 1199.31 1.48357 1201.79C5.23434 1204.39 9.14805 1206.75 13.2006 1208.85C17.1668 1211.15 20.9513 1213.39 25.1295 1215.69C41.176 1224.77 56.8592 1234.19 73.0268 1243.21C105.18 1261.17 136.607 1280.06 168.67 1298.11C183.506 1306.43 179.388 1307.98 193.921 1299.5L307.397 1234.31C309.244 1233.22 308.941 1233.16 310.788 1234.31C311.726 1234.92 312.635 1235.43 313.664 1235.98L361.592 1263.35C369.494 1267.95 377.547 1272.43 385.48 1277L433.377 1304.52C441.4 1309.04 449.121 1313.46 457.235 1318.21C465.349 1322.96 473.16 1327.14 481.123 1331.86C489.086 1336.59 497.472 1340.58 504.981 1345.58C505.405 1363.57 504.981 1382.09 504.981 1400.08V1482.28C504.981 1496.12 502.741 1494.97 513.458 1501.11C524.933 1507.65 536.559 1514.13 548.004 1520.92C559.448 1527.7 571.317 1534.03 582.761 1540.87C594.206 1547.71 606.044 1554.01 617.519 1560.82C637.562 1572.72 658.089 1583.95 678.072 1595.64C688.244 1601.7 686.398 1601.15 696.48 1595.64C728.542 1577.66 760.06 1558.97 791.881 1540.87C803.406 1534.37 814.921 1527.76 826.426 1521.04C838.052 1514.29 849.648 1507.9 861.184 1501.08C863.727 1499.6 868.208 1497.72 869.116 1495.03C870.024 1492.33 869.419 1404.44 869.419 1399.84C869.419 1381.85 869.025 1363.5 869.419 1345.34C872.144 1344.25 936.723 1306.8 941.87 1303.89L990.01 1276.28C997.973 1271.64 1006.15 1267.19 1014.08 1262.5C1030.16 1253.42 1046.02 1243.94 1062.25 1234.89C1064.22 1233.77 1073.3 1228.1 1074.54 1228.26C1075.78 1228.41 1108.09 1247.36 1110.63 1248.84C1126.71 1258.08 1142.66 1267.16 1158.74 1276.46L1194.92 1297.23C1195.92 1298.02 1197.16 1298.46 1198.43 1298.46C1199.71 1298.46 1200.95 1298.02 1201.95 1297.23C1219.87 1286.9 1237.88 1276.28 1256.05 1266.19C1272.28 1257.11 1288.17 1247.66 1304.34 1238.43L1376.52 1197.01C1382.24 1193.74 1380.7 1191.29 1380.7 1182.17V992.972C1380.7 984.464 1382.36 983.223 1375.7 979.347C1367.89 974.775 1359.81 970.052 1351.66 965.48C1327.44 951.976 1303.64 937.746 1279.48 924.091C1275.4 921.76 1271.37 919.459 1267.37 917.097C1263.29 914.989 1259.33 912.654 1255.5 910.103L1252.96 684.841C1254.63 683.296 1302.01 656.501 1306.31 654.018L1359.59 623.469L1377.49 613.205C1381.64 610.813 1380.7 607.906 1380.7 602.608V420.702C1380.7 417.674 1381.18 402.112 1380.33 399.811C1379.49 397.51 1378.55 397.51 1376.85 396.51C1371.1 393.15 1365.04 389.819 1359.17 386.368C1347.42 379.464 1335.43 372.682 1323.6 365.931C1311.76 359.179 1300.16 352.185 1288.05 345.675C1264.07 332.202 1240.88 318.032 1216.9 304.831C1197.62 294.204 1201.76 292.236 1188.87 299.775C1185.84 301.501 1183.02 303.105 1180.06 304.861C1168.25 311.795 1156.41 318.304 1144.48 325.268C1138.61 328.72 1132.67 332.111 1126.59 335.562L1091.25 355.697C1087.77 357.635 1076.12 364.992 1073.39 365.809C1056.13 356.333 1039.33 345.615 1022.22 335.926C1004.54 325.843 872.87 247.819 869.479 246.608V111.572C869.479 105.728 870.176 104.214 865.816 101.641L823.247 77.2372C811.53 70.7276 800.449 63.8849 788.914 57.4964C777.378 51.1079 766.115 44.2653 754.792 37.9071L703.716 8.50789L694.996 3.54243C692.786 2.24051 688.941 -0.817497 685.641 0.181652C683.219 0.96886 671.532 8.17484 668.292 10.0217L617.064 39.4209C605.741 46.0819 594.115 52.6218 582.731 59.1314C571.347 65.641 560.084 72.2415 548.609 78.7208C537.135 85.2001 525.599 91.74 514.276 98.4312C503.891 104.487 504.981 101.701 504.981 116.113V223.567C504.981 232.196 505.405 241.733 504.981 250.332L504.951 250.302Z" fill="white"/>
</g>
<defs>
<clipPath id="clip0_244_161">
<rect width="1381" height="1600" fill="white"/>
</clipPath>
</defs>
</svg>
