<svg width="1150" height="1328" viewBox="0 0 1150 1328" fill="none" xmlns="http://www.w3.org/2000/svg">
<path fill-rule="evenodd" clip-rule="evenodd" d="M1018.45 419.123V572.406C1021.3 571.606 1123 512.703 1134.36 506.279L1146.48 499.216C1150.29 497.084 1149.87 497.75 1149.87 492.553V344.121C1144.54 345.187 1035 410.514 1018.48 419.123H1018.45Z" fill="black"/>
<path fill-rule="evenodd" clip-rule="evenodd" d="M430.843 1251.85C432.096 1254.52 443.636 1260.01 446.834 1261.82L496.325 1290.37C501.656 1293.27 559.249 1326.93 562.394 1328V1174.42C556.773 1171.66 551.318 1168.57 546.056 1165.18L448.113 1108.94C443.529 1106.27 435.827 1101.1 430.976 1099.37L430.843 1251.85Z" fill="black"/>
<path fill-rule="evenodd" clip-rule="evenodd" d="M0 1001.12C9.59444 1004.86 123.395 1073.09 131.39 1076.05V923.696C130.724 921.164 100.742 905.039 98.876 904.079L0 847.468V1001.12Z" fill="black"/>
<path fill-rule="evenodd" clip-rule="evenodd" d="M582.063 1174.5V1251.8C582.063 1273.65 581.423 1307.37 582.063 1327.81L713.08 1252.86C713.986 1244.12 713.293 1129.94 713.293 1099.31L582.089 1174.45L582.063 1174.5Z" fill="black"/>
<path fill-rule="evenodd" clip-rule="evenodd" d="M1018.56 917.299V1070.18C1021.06 1069.76 1120.84 1012.03 1134.17 1004.4C1136.83 1002.8 1139.5 1001.28 1142.16 999.711C1151.87 994.381 1149.71 997.952 1149.71 974.871V842.004L1083.98 879.478C1072.84 885.742 1062.32 892.085 1051.04 898.376C1046.06 901.201 1021.41 914.901 1018.56 917.299Z" fill="black"/>
<path fill-rule="evenodd" clip-rule="evenodd" d="M582.222 824.732C584.061 822.733 630.514 796.64 634.032 794.668C640.482 791.069 683.47 765.509 686.082 765.349L688.054 763.723C688.507 763.403 689.173 763.03 689.653 762.764L713.373 749.437V595.967C709.828 597.273 652.501 630.617 647.091 633.708C639.842 637.813 583.528 669.424 582.089 671.743L582.222 824.732Z" fill="black"/>
<path fill-rule="evenodd" clip-rule="evenodd" d="M114.174 561.958C117.772 562.304 126.833 569.554 131.31 570.967V419.629C130.538 417.417 93.8122 398.547 91.7867 395.908C86.4564 394.415 5.88979 346.12 -0.0800781 343.987V497.27L28.1702 513.555C35.5526 517.82 96.3174 553.136 99.4356 554.175C103.913 555.641 112.015 558.759 114.174 561.958Z" fill="black"/>
<path fill-rule="evenodd" clip-rule="evenodd" d="M561.914 824.706L562.314 670.73C558.236 669.184 460.746 612.519 448.54 605.589C445.049 603.617 434.308 598.286 432.549 595.887C429.724 595.887 430.87 597.247 430.87 604.496V748.424C432.522 750.716 488.97 782.38 496.352 786.805C507.199 793.255 518.473 799.012 529.4 805.462C532.411 807.274 560.502 822.68 561.941 824.599L561.914 824.706Z" fill="black"/>
<path fill-rule="evenodd" clip-rule="evenodd" d="M468.475 594.768C474.018 596.634 569.083 652.979 571.482 653.405C573.88 653.832 576.945 651.086 578.864 649.94L695.97 582.827C698.666 581.713 701.119 580.083 703.192 578.03L670.065 559.372C662.389 554.841 575.853 504.173 571.162 503.4C569.616 505.133 543.311 519.552 539.181 522.058L457.974 568.648C452.484 571.819 446.914 574.698 441.424 578.323C443.322 580.151 445.534 581.622 447.953 582.667C452.138 585.093 467.355 593.115 468.581 594.821L468.475 594.768Z" fill="black"/>
<path fill-rule="evenodd" clip-rule="evenodd" d="M957.258 373.252C960.803 373.572 976.767 383.914 979.965 385.646C987.721 389.964 994.996 394.388 1002.75 398.68C1010.51 402.971 1007.82 402.838 1025.97 392.15C1063.28 370.161 1102.4 348.625 1139.63 326.769C1136.38 323.571 1106.27 308.458 1104.35 305.846C1100.56 304.54 1025.3 260.882 1018.5 256.911C1006.59 249.928 1009.23 250.967 1004.06 253.819C974.288 270.131 935.271 292.733 905.635 310.857C901.051 313.656 879.437 325.117 877.678 326.849C888.551 334.259 954.566 369.494 957.258 373.252Z" fill="black"/>
<path fill-rule="evenodd" clip-rule="evenodd" d="M457.974 64.714L441.291 74.6557C444.329 78.4138 465.543 87.6625 467.942 90.6477C473.188 93.0451 478.256 95.8153 483.106 98.9368L526.948 124.177C536.862 129.668 546.483 135.478 556.264 140.942C572.441 150.005 570.123 151.604 578.251 146.859C609.167 129.162 642.481 108.985 673.583 91.927C678.513 89.2617 683.39 86.5963 688.267 83.5845C693.395 80.9063 698.369 77.9431 703.165 74.709C701.033 72.71 573.64 0.0797692 573.587 0.0797692C571.269 -0.933056 568.257 1.75893 566.125 2.95833C554.558 9.595 462.851 62.8483 458.107 64.5541L457.974 64.714Z" fill="black"/>
<path fill-rule="evenodd" clip-rule="evenodd" d="M128.805 395.402C130.884 395.561 135.788 398.893 137.813 400.066C142.504 402.731 142.69 401.025 147.141 398.493L254.466 336.951C260.568 333.872 266.494 330.455 272.215 326.716C268.826 324.376 265.262 322.3 261.555 320.506C257.664 318.4 253.853 316.161 250.095 314.056L228.001 300.969C227.441 300.649 184.32 276.341 183.627 275.062L141.464 251.234C137.733 252.62 129.152 258.19 125.021 260.509L10.2339 326.956C24.7055 334.339 53.9152 352.09 69.6395 360.859C79.9268 366.589 88.9083 372.187 99.2223 377.97L126.833 393.829C128.006 394.602 126.593 393.589 127.659 394.415C128.096 394.716 128.491 395.075 128.832 395.481L128.805 395.402Z" fill="black"/>
<path fill-rule="evenodd" clip-rule="evenodd" d="M867.337 934.917L899.025 916.42C911.205 909.143 913.657 914.794 933.539 925.908C940.681 929.88 947.957 934.064 955.259 938.089C964.907 943.419 962.482 949.23 962.482 964.742C962.482 975.137 963.228 988.517 962.482 998.538C961.869 1006.53 953.767 1009.07 944.519 1014.4C937.51 1018.45 928.955 1022.63 922.638 1027C925.522 1028.94 928.512 1030.72 931.593 1032.33C935.004 1034.33 937.963 1035.91 941.374 1037.93L979.539 1059.87C983.563 1062.16 995.529 1069.84 998.807 1070.66V917.432L982.444 907.731C968.478 899.735 873.653 844.669 867.55 842.03L867.364 934.917H867.337Z" fill="black"/>
<path fill-rule="evenodd" clip-rule="evenodd" d="M941.108 540.075C943.48 540.262 965.947 553.961 969.944 556.227C973.942 558.493 996.595 571.979 998.754 572.219V418.963C991.505 415.125 920.799 374.505 920.133 373.652C916.935 372.772 886.473 354.595 880.609 351.343C876.314 348.618 871.865 346.144 867.284 343.934V431.223L889.564 418.35C900.225 412.273 905.555 406.702 913.55 410.993C921.172 414.991 928.635 419.442 935.991 423.734C956.485 435.594 962.322 434.128 962.295 449.747C962.295 459.902 963.521 495.378 960.696 499.855C958.511 503.32 923.038 523.204 917.521 525.682L939.722 539.009C940.173 539.302 940.577 539.661 940.921 540.075H941.108Z" fill="black"/>
<path fill-rule="evenodd" clip-rule="evenodd" d="M591.817 161.172C588.83 163.509 585.573 165.478 582.116 167.036L581.982 320.612L663.029 274.022L645.359 263.601C639.522 261.415 631.074 255.605 625.184 252.406C615.909 247.076 618.255 241.745 618.255 227.725C618.255 217.491 618.255 207.256 618.255 197.021C618.255 183.881 622.412 184.067 631.82 179.003C680.938 152.51 664.255 150.991 702.872 173.433C706.228 175.651 709.747 177.611 713.4 179.296V92.2734C707.563 94.539 621.586 144.834 607.834 152.457C603.916 154.615 595.495 160.159 591.843 161.172H591.817Z" fill="black"/>
<path fill-rule="evenodd" clip-rule="evenodd" d="M10.3938 830.303C13.2988 832.968 140.985 905.412 141.331 905.412L272.162 830.489L195.833 786.351C195.007 793.734 195.833 805.755 195.966 813.671C195.966 824.039 198.045 831.715 190.449 836.566L155.057 857.462C138.613 867.084 142.637 864.925 117.931 851.146C111.988 847.841 105.992 844.162 100.075 840.857C91.6267 836.166 88.5618 836.033 88.6418 823.906C88.6418 814.711 89.3347 793.148 88.6418 785.179L10.3938 830.303Z" fill="black"/>
<path fill-rule="evenodd" clip-rule="evenodd" d="M644.08 1047.74L626.943 1038.41C625.877 1046.62 626.943 1061.87 626.943 1070.82C626.943 1087.48 626.464 1084.95 615.297 1091.91C609.966 1095.32 577.639 1115.04 573.747 1115.28C568.231 1115.6 537.981 1096.62 531.265 1092.84C520.152 1086.6 519.459 1087.51 519.539 1072.1C519.539 1061.44 519.539 1050.78 519.539 1040.12C519.539 1034.79 519.885 1038.71 517.993 1037.45C516.687 1039 471.14 1064.99 460.64 1071.06C457.122 1073.09 442.89 1080.42 441.211 1082.5C445.875 1084.6 452.671 1088.87 457.495 1091.72L571.829 1156.99C573.534 1156.99 673.823 1099.15 686.269 1092.01C691.93 1089.13 697.412 1085.91 702.686 1082.36C700.927 1080.18 678.06 1068.66 673.37 1065.25C669.692 1062.59 644.853 1048.89 644.053 1047.77L644.08 1047.74Z" fill="black"/>
<path fill-rule="evenodd" clip-rule="evenodd" d="M151.059 923.696V1075.97C154.311 1075.01 210.331 1042.28 219.526 1037.08C222.929 1035.39 226.215 1033.48 229.36 1031.35L190.05 1008.67C184.48 1005.6 181.788 1003.87 181.788 995.98V949.923C181.788 939.715 189.517 937.636 202.443 930.466C211.104 925.642 219.633 920.844 228.188 915.887C234.104 912.475 237.516 911.889 243.619 915.407C249.722 918.925 278.878 936.73 282.53 937.902V847.654C279.092 848.72 173.579 909.89 158.895 918.232C156.709 919.458 151.859 921.564 151.059 923.563V923.696Z" fill="black"/>
<path fill-rule="evenodd" clip-rule="evenodd" d="M432.362 182.361C432.895 181.562 468.315 160.399 473.059 158.373C478.975 155.895 484.812 160.133 489.05 162.638C498.484 168.182 507.705 173.299 517.193 178.63C521.804 181.295 528.147 183.534 530.199 187.399C532.251 191.264 531.532 203.604 531.532 209.148C531.532 218.53 531.532 227.805 531.532 237.294C531.532 249.954 529.106 249.901 520.258 254.885C514.182 258.297 508.398 261.815 501.975 265.36L488.65 273.036C483.879 275.701 485.079 274.662 484.252 276.581C486.491 276.901 518.632 295.531 523.137 298.197C529.933 302.221 557.09 318.426 562.34 320.559V168.208C561.994 166.503 561.221 166.369 558.076 164.69C556.314 163.974 554.69 162.954 553.279 161.678C548.455 159.946 470.873 114.529 461.279 109.251C455.949 106.32 434.148 93.0729 430.923 92.0601C430.417 117.487 430.923 146.006 430.923 172.02C430.923 173.966 430.923 175.911 430.923 177.804C430.923 177.964 431.057 180.282 431.083 180.469C431.803 182.814 429.857 181.482 432.522 182.441L432.362 182.361Z" fill="black"/>
<path fill-rule="evenodd" clip-rule="evenodd" d="M272.455 429.118L282.45 434.448L282.609 346.732C282.609 342.041 282.743 345.346 281.41 344.067L151.086 419.069V569.927C155.536 568.434 171.954 557.4 179.389 553.562C186.292 549.99 183.28 554.228 190.956 549.804L219.366 533.439C222.68 531.699 225.901 529.786 229.014 527.708L226.882 525.949C219.606 521.445 188.051 504.36 185.519 502.094C181.575 498.603 181.788 494.924 181.788 488.768C181.788 478.639 180.535 443.164 183.52 438.819C186.185 435.035 219.553 417.497 226.828 413.072C239.674 405.396 244.525 412.592 261.901 422.587L271.549 428.265C272.349 428.851 272.295 428.798 272.482 429.171L272.455 429.118Z" fill="black"/>
<path fill-rule="evenodd" clip-rule="evenodd" d="M1104.61 804.023C1099.71 802.344 1088.62 795.387 1083.61 792.429C1079.99 790.323 1077.03 788.67 1073.51 786.565C1070.12 784.333 1066.56 782.38 1062.85 780.728C1062.85 792.135 1063.25 803.543 1063.38 814.951C1063.75 820.695 1063.71 826.458 1063.25 832.195C1062.29 837.286 1059.36 838.699 1055.25 841.018C1049.23 844.456 1015.44 865.006 1012.35 865.938C1007.02 867.431 1002.73 864.259 999.287 862.127L967.306 843.603C955.126 836.7 956.006 837.1 956.086 820.708C956.086 809.62 956.245 798.532 956.272 787.444C956.299 776.357 956.672 781.048 955.019 779.795C953.98 781.901 888.605 817.909 877.731 824.732C879.836 826.838 890.284 832.169 893.562 834.114L1008.7 899.735C1008.88 899.735 1132.36 829.743 1139.5 824.732C1135.9 821.321 1106 806.102 1104.61 804.023Z" fill="black"/>
<path fill-rule="evenodd" clip-rule="evenodd" d="M648.557 192.543C650.423 194.675 711.561 229.858 721.715 235.801L852.839 312.563C856.303 314.615 856.703 316.028 860.168 314.029L882.022 301.288C879.97 299.316 827.493 268.985 823.762 266.799L677.687 181.322C674.062 179.243 673.956 177.83 670.438 179.803L648.557 192.543Z" fill="black"/>
<path fill-rule="evenodd" clip-rule="evenodd" d="M267.792 301.288C272.455 304.499 277.345 307.367 282.423 309.871C294.496 316.747 291.298 315.841 297.081 312.536C306.542 307.019 316.696 301.368 326.158 295.558C345.293 283.831 365.548 273.143 384.63 261.282C394.092 255.418 403.953 249.821 413.707 244.304L472.153 210.028C476.657 207.362 499.577 194.515 501.469 192.596C501.469 192.596 501.15 192.17 501.096 192.303L500.323 191.717L499.95 191.45L479.509 179.883C476.257 177.964 475.325 179.59 472.233 181.375L384.737 232.55C383.058 233.483 270.883 298.703 267.792 301.288Z" fill="black"/>
<path fill-rule="evenodd" clip-rule="evenodd" d="M698.635 552.869C702.099 555.534 714.972 562.464 720.595 565.769C724.113 567.821 725.473 565.769 728.404 564.09C738.398 558.306 747.62 552.976 757.481 547.112L815.927 512.809C822.909 508.918 928.208 446.602 932.632 444.737C930.36 442.753 927.787 441.143 925.01 439.966L917.681 435.781C907.287 429.944 909.233 429.598 902.783 433.356C893.322 438.9 883.274 444.577 873.707 450.36L815.261 484.637C776.003 507.079 737.652 530.107 698.635 552.869Z" fill="black"/>
<path fill-rule="evenodd" clip-rule="evenodd" d="M211.957 948.004C216.47 951.196 221.199 954.073 226.109 956.613L416.105 1067.92C422.502 1071.62 419.303 1071.65 430.763 1065.38C433.722 1063.76 444.222 1058.32 445.688 1056.64C418.291 1039.74 386.016 1022.39 358.299 1005.44C338.87 993.554 319.335 982.973 299.826 971.165L241.193 936.943C234.637 933.158 238.075 933.105 226.642 939.395C221.513 941.908 216.57 944.785 211.85 948.004H211.957Z" fill="black"/>
<path fill-rule="evenodd" clip-rule="evenodd" d="M150.339 593.355L151.779 836.14C154.923 835.447 172.407 824.359 176.404 822.041L174.938 579.309L150.339 593.435V593.355Z" fill="black"/>
<path fill-rule="evenodd" clip-rule="evenodd" d="M698.875 1056.75C703.459 1060.32 714.866 1066.02 720.836 1069.6C724.087 1071.52 724.887 1069.73 728.111 1067.89L815.661 1016.61C835.356 1005.23 854.625 993.874 874.293 982.413C878.691 979.748 929.834 950.269 932.42 948.004C930.847 946.298 914.83 937.876 910.619 935.397C907.021 933.291 907.154 934.571 903.45 936.703L757.428 1022.26C747.833 1027.86 738.026 1033.45 728.325 1039.24L706.497 1051.93C705.165 1052.72 704.338 1053.28 702.899 1054.08L700.101 1055.79C698.795 1056.75 699.595 1056.16 698.955 1056.75H698.875Z" fill="black"/>
<path fill-rule="evenodd" clip-rule="evenodd" d="M238.182 460.489C241.902 462.113 245.469 464.067 248.842 466.326C270.67 478.853 403.18 556.014 404.645 558.146C406.911 558.386 407.044 558.813 409.976 560.518C411.868 561.691 412.934 562.304 414.773 563.397C420.29 566.675 419.677 568.035 425.433 564.756C432.496 560.705 438.946 557.213 445.768 553.109C439.292 548.258 390.44 520.832 377.941 513.262C374.667 511.558 371.538 509.588 368.586 507.372C364.749 505.932 341.109 491.38 334.873 487.888L269.124 449.374C263.794 446.309 239.808 431.303 235.543 430.53C234.85 431.676 226.109 436.181 223.923 437.407L211.744 444.79C220.885 449.573 229.78 454.812 238.395 460.489H238.182Z" fill="black"/>
<path fill-rule="evenodd" clip-rule="evenodd" d="M581.21 932.145C583.102 935.85 582.409 1071.22 582.516 1088.25C588.725 1085.88 602.877 1075.62 607.221 1074.21L606.475 962.263L605.835 833.821L581.343 847.628C581.343 861.541 581.343 875.694 581.343 889.847C581.343 898.162 582.516 926.228 581.103 932.199L581.21 932.145Z" fill="black"/>
<path fill-rule="evenodd" clip-rule="evenodd" d="M1019.28 839.365L1043.71 824.946L1041.05 584.293C1039.26 584.293 1019.92 594.954 1017.78 596.82L1019.38 839.365H1019.28Z" fill="black"/>
<path fill-rule="evenodd" clip-rule="evenodd" d="M680.272 261.975C683.417 262.295 701.86 273.622 702.473 274.449C705.964 275.408 803.001 331.806 811.53 336.604C818.459 340.495 842.925 355.128 847.695 356.994L847.482 332.073L794.953 301.368C785.625 295.798 640.749 210.401 637.897 209.868V237.054C644.32 241.399 678.06 258.91 680.219 261.975H680.272Z" fill="black"/>
<path fill-rule="evenodd" clip-rule="evenodd" d="M302.171 343.507V356.834C304.837 356.647 469.275 261.308 486.065 251.98C487.664 251.074 511.517 238.493 512.023 235.988C512.023 230.231 512.849 214.239 511.543 209.788C507.439 211.733 502.748 214.905 498.724 217.197L315.497 324.503C310.906 326.911 306.456 329.581 302.171 332.499V343.614V343.507Z" fill="black"/>
<path fill-rule="evenodd" clip-rule="evenodd" d="M109.03 583.387L108.284 821.987C108.79 823.986 117.878 828.464 119.69 829.53C123.637 832.062 127.761 834.307 132.03 836.247L130.697 593.995C128.992 592.316 111.082 581.841 109.03 581.628V583.387Z" fill="black"/>
<path fill-rule="evenodd" clip-rule="evenodd" d="M368.133 558.493C364.668 557.507 294.522 515.714 284.475 509.957C280.344 507.585 205.161 462.861 201.11 461.528L201.43 488.182C201.909 490.287 250.814 517.34 253.373 518.78C286.34 537.437 326.104 559.639 358.299 578.883L411.255 609.028V584.133C407.497 582.508 368.799 559.532 368.16 558.6L368.133 558.493Z" fill="black"/>
<path fill-rule="evenodd" clip-rule="evenodd" d="M917.308 503.534C921.039 501.375 941.561 490.367 942.786 488.075V461.421L733.095 584.026V608.867L917.281 503.534H917.308Z" fill="black"/>
<path fill-rule="evenodd" clip-rule="evenodd" d="M733.202 1087.69V1112.51C739.385 1110.19 904.489 1013.89 929.328 1000.3C934.099 997.632 938.23 994.967 942.814 992.675V965.302L733.228 1087.69H733.202Z" fill="black"/>
<path fill-rule="evenodd" clip-rule="evenodd" d="M539.287 1037.56L539.154 1074.87L562.873 1088.44L562.26 948.644L561.567 846.935L540.033 834.408L539.287 1037.56Z" fill="black"/>
<path fill-rule="evenodd" clip-rule="evenodd" d="M975.994 714.521L975.621 825.692C979.672 828.038 996.142 838.059 999.314 839.019L998.035 596.98C997.528 595.594 978.233 584.506 975.914 584.267C977.46 588.425 976.047 699.675 975.914 714.415L975.994 714.521Z" fill="black"/>
<path fill-rule="evenodd" clip-rule="evenodd" d="M201.483 968.447V981.774C201.483 995.473 199.324 990.942 213.903 999.445L411.122 1112.4V1087.48C377.488 1068.82 340.256 1045.98 306.462 1026.36L201.43 965.062L201.483 968.447Z" fill="black"/>
<path fill-rule="evenodd" clip-rule="evenodd" d="M772.192 763.963L853.825 811.193C858.542 814.071 857.956 813.485 868.163 807.488C872.681 804.647 877.382 802.11 882.235 799.892C879.612 797.537 876.658 795.579 873.467 794.081L737.546 713.962L733.175 712.042V739.469C733.814 741.041 733.521 740.615 735.28 741.814L771.153 762.897C771.572 763.22 771.964 763.576 772.325 763.963H772.192Z" fill="black"/>
<path fill-rule="evenodd" clip-rule="evenodd" d="M267.658 805.035C273.438 808.769 279.417 812.186 285.568 815.27C294.149 819.908 289.752 820.201 304.09 812.045C316.137 805.222 327.57 797.999 339.989 791.016L393.665 759.618C396.17 758.126 410.802 750.396 411.201 748.424V720.944L339.243 762.79C327.064 769.933 315.417 776.703 303.344 783.819L267.631 805.142L267.658 805.035Z" fill="black"/>
<path fill-rule="evenodd" clip-rule="evenodd" d="M582.062 486.289L606.048 499.962L604.556 330.927L583.235 342.734C580.303 344.547 581.369 348.571 581.396 352.463L582.062 486.289Z" fill="black"/>
<path fill-rule="evenodd" clip-rule="evenodd" d="M539.394 498.949C543.409 497.252 547.248 495.163 550.854 492.712C554.543 490.308 558.41 488.188 562.42 486.369L561.567 342.921L540.113 330.767L539.394 498.949Z" fill="black"/>
<path fill-rule="evenodd" clip-rule="evenodd" d="M302.038 836.06L302.198 860.634C308.221 857.969 366.321 824.306 372.744 820.654L426.046 790.11C431.376 787.151 438.785 782.114 444.196 780.061C444.196 779.928 443.902 779.528 443.849 779.662L426.393 769.24C419.703 765.455 423.994 764.949 408.51 773.851L302.091 836.14L302.038 836.06Z" fill="black"/>
<path fill-rule="evenodd" clip-rule="evenodd" d="M722.115 766.388C720.356 769.054 711.001 772.092 707.883 775.477L829.999 845.229C835.542 848.507 841.832 852.345 847.402 855.091L847.722 830.09C842.929 827.754 838.283 825.128 833.81 822.227C818.832 813.618 736.879 765.775 735.947 764.443C734.041 763.7 732.196 762.809 730.43 761.777C727.761 763.485 724.983 765.016 722.115 766.362V766.388Z" fill="black"/>
</svg>
