<svg width="492" height="206" viewBox="0 0 492 206" fill="none" xmlns="http://www.w3.org/2000/svg">
<g clip-path="url(#clip0_233_183)">
<path fill-rule="evenodd" clip-rule="evenodd" d="M266.53 185.19C255.01 198.19 237.78 205.75 216.53 205.75C198.35 205.75 181.93 200.13 168.93 187.16C157.59 175.84 152.74 161.01 151.65 145.54V204.61H82.09V165.47H70.83V204.61H0V61.33H61.86L42.48 0.499997H315.16C319.803 -0.16859 324.517 -0.16859 329.16 0.499997H397.23V1.28C414.69 4.71 427.66 19.21 427.66 38.05C427.663 41.9536 427.118 45.8382 426.04 49.59L434.29 63.59C437.506 62.3665 440.919 61.7461 444.36 61.76H491.59V204.34H377.37C369.99 204.392 362.891 201.515 357.63 196.34C343.78 203.63 332.06 205.74 316.03 205.74H315.51H314.99C306.579 205.422 298.281 203.698 290.44 200.64C283.417 197.915 276.872 194.09 271.05 189.31C269.483 187.977 267.977 186.613 266.53 185.22V185.19Z" fill="white"/>
<path fill-rule="evenodd" clip-rule="evenodd" d="M97.23 62.46L108.23 27.66H102.23L93.93 53.96L85.63 27.66H79.63L90.72 62.46H97.23ZM118.65 62.46H112.65V27.66H118.65V62.46ZM144.11 48.86C147.94 47.57 150.53 43.2 150.53 38.03C150.53 31.86 146 27.66 139.23 27.66H126.56V62.46H132.56V49.68H138.38L145.64 62.46H152.15L144.15 48.88L144.11 48.86ZM132.53 33.17H138.7C142.87 33.17 145.06 34.86 145.06 38.05C145.06 42.05 142.82 44.21 138.55 44.21H132.55L132.53 33.17ZM161.23 62.46H167.23V33.12H175.63V27.66H152.85V33.12H161.23V62.46ZM200.87 27.66V48.98C200.77 54.25 197.49 57.73 192.67 57.73C187.85 57.73 184.82 54.25 184.82 48.98V27.66H178.82V49.03C178.82 57.54 184.34 63.2 192.64 63.2C201.14 63.2 206.81 57.54 206.81 49.03V27.66H200.87ZM227.13 27.66H221.13L209.8 62.46H216.01L218.89 53.51H229.29L232.23 62.46H238.44L227.13 27.66ZM227.58 48.04H220.73L224.12 37.6L227.58 48.04ZM249.36 27.66H242.89V62.46H263.89V56.99H249.36V27.66ZM289.43 62.46H295.43V33.12H303.84V27.66H281.08V33.12H289.43V62.46ZM322.16 27.16C312.11 27.16 306.16 33.77 306.16 45.01C306.16 56.25 312.07 62.95 322.16 62.95C332.25 62.95 338.07 56.29 338.07 45.01C338.07 33.73 332.15 27.16 322.16 27.16ZM332.05 45.01C332.05 52.86 328.37 57.48 322.11 57.48C315.85 57.48 312.11 52.86 312.11 45.01C312.11 37.16 315.84 32.63 322.16 32.63C328.48 32.63 332.05 37.2 332.05 45.01ZM364.12 27.66V48.98C364.02 54.25 360.74 57.73 355.92 57.73C351.1 57.73 348.06 54.25 348.06 48.98V27.66H342.06V49.03C342.06 57.54 347.58 63.2 355.88 63.2C364.38 63.2 370.05 57.54 370.05 49.03V27.66H364.12ZM394.12 48.88C397.95 47.59 400.54 43.22 400.54 38.05C400.54 31.83 396.01 27.66 389.2 27.66H376.55V62.46H382.55V49.68H388.37L395.63 62.46H402.14L394.14 48.88H394.12ZM382.54 33.17H388.7C392.88 33.17 395.07 34.86 395.07 38.05C395.07 42.05 392.83 44.21 388.56 44.21H382.56L382.54 33.17Z" fill="black"/>
<path fill-rule="evenodd" clip-rule="evenodd" d="M83.45 102.47V88.47H27.16V177.47H43.68V138.31H75.23V124.31H43.68V102.47H83.45ZM109.25 177.47H124.5V102.47H145.98V88.47H87.9V102.47H109.23V177.47H109.25Z" fill="black"/>
<path fill-rule="evenodd" clip-rule="evenodd" d="M376.56 89.75V176.38C376.56 177.01 376.75 177.19 377.37 177.19H395.82V120.44L408.08 138.86C408.74 139.86 419.43 156.68 420.51 157.38C421.36 156.75 440.61 127.04 442.26 124.56L443.78 122.3L445.46 119.9V177.2H464.46V88.92H444.37C443.37 88.92 442.94 90.19 442.51 90.92L429.39 112.01C428.6 113.28 421.01 125.28 420.77 126.18L398.77 91.1C398.38 90.43 397.77 88.94 396.86 88.94H377.37C376.75 88.94 376.56 89.13 376.56 89.75Z" fill="black"/>
<path fill-rule="evenodd" clip-rule="evenodd" d="M178.57 89.75V138.4C178.57 151.4 181.57 161.4 188.13 167.94C195.74 175.54 205.2 178.6 216.54 178.6C241.49 178.6 255.32 163.97 255.32 138.99V89.75C255.32 89.12 255.13 88.93 254.51 88.93H236.63C235.63 88.93 235.78 89.8 235.79 90.81C235.86 100.41 236.07 139.81 235.59 143.57C235.346 146.589 234.495 149.527 233.09 152.21C231.622 154.709 229.523 156.778 227.002 158.209C224.481 159.64 221.628 160.382 218.73 160.36C214.21 160.36 211.85 160.59 207.79 158.56C201.01 155.16 198.12 148.08 198.12 139.72V88.93H179.38C178.76 88.93 178.57 89.12 178.57 89.72V89.75Z" fill="black"/>
<path fill-rule="evenodd" clip-rule="evenodd" d="M356.49 143.04L355.95 142.98C350.72 142.98 345.44 143.04 340.2 142.98C338.46 142.98 337.64 142.51 337.47 144.04V156.04C336.41 156.33 330.69 160.7 322.29 160.94C314.58 161.17 310.35 160.16 305.58 157.3C286.73 145.98 289.52 113.8 310.74 106.75C319.74 103.75 330.98 106.5 338.32 112.28C339.243 113.133 340.248 113.894 341.32 114.55L353.23 99.86C352.44 98.72 349.49 96.64 348.13 95.73C337.5 88.6 322.48 85.85 309.53 88.43C276.9 94.92 263.11 131 279.47 158.23C281.878 162.05 284.871 165.469 288.34 168.36C291.959 171.293 296.006 173.653 300.34 175.36C305.363 177.31 310.676 178.408 316.06 178.61C328.72 178.61 336.18 177.29 346.81 171.36C349.76 169.68 352.575 167.774 355.23 165.66C356.85 164.53 356.49 164.53 356.47 162.02C356.47 155.68 356.47 149.36 356.47 143.02L356.49 143.04Z" fill="black"/>
<path fill-rule="evenodd" clip-rule="evenodd" d="M319.6 143.25H336.42V126.41H319.6V143.25Z" fill="black"/>
<path fill-rule="evenodd" clip-rule="evenodd" d="M355.95 142.98L356.49 143.04V126.4H337.78C338.51 127.53 339.08 127.6 340.03 128.5C340.98 129.4 341.32 129.71 342.3 130.55L353.7 140.86C354.561 141.438 355.322 142.154 355.95 142.98Z" fill="black"/>
</g>
<defs>
<clipPath id="clip0_233_183">
<rect width="491.6" height="205.75" fill="white"/>
</clipPath>
</defs>
</svg>
